<?xml version="1.0" standalone="no"?>
<!DOCTYPE svg PUBLIC "-//W3C//DTD SVG 20010904//EN"
 "http://www.w3.org/TR/2001/REC-SVG-20010904/DTD/svg10.dtd">
<svg version="1.0" xmlns="http://www.w3.org/2000/svg"
 width="260.000000pt" height="260.000000pt" viewBox="0 0 260.000000 260.000000"
 preserveAspectRatio="xMidYMid meet">
<metadata>
Created by potrace 1.11, written by Peter Selinger 2001-2013
</metadata>
<g transform="translate(0.000000,260.000000) scale(0.100000,-0.100000)"
fill="#000000" stroke="none">
<path d="M177 2586 c-77 -28 -139 -86 -163 -154 -11 -30 -13 -257 -14 -1138
l0 -1100 26 -52 c14 -28 43 -65 64 -82 80 -63 18 -60 1202 -60 726 0 1093 3
1121 11 65 16 130 69 161 130 l26 53 0 1094 c0 837 -3 1104 -12 1136 -8 25
-32 61 -63 93 -86 89 -5 83 -1234 83 -877 -1 -1083 -3 -1114 -14z m1258 -536
c136 -12 210 -30 300 -75 170 -82 258 -245 241 -443 -22 -239 -157 -396 -399
-462 -84 -23 -232 -39 -359 -40 l-88 0 0 -265 0 -264 -38 -12 c-54 -16 -273
-9 -296 10 -15 13 -16 73 -14 756 3 716 4 744 22 764 11 12 33 25 50 30 42 13
446 13 581 1z"/>
<path d="M1132 1544 l3 -269 58 -3 c88 -5 231 14 274 36 87 45 134 120 141
228 7 117 -36 201 -124 244 -43 21 -67 24 -202 28 l-152 4 2 -268z"/>
</g>
</svg>
